<mxfile host="Electron" modified="2023-05-14T15:04:12.068Z" agent="Mozilla/5.0 (Macintosh; Intel Mac OS X 10_15_7) AppleWebKit/537.36 (KHTML, like Gecko) draw.io/21.2.8 Chrome/112.0.5615.165 Electron/24.2.0 Safari/537.36" etag="e6YAm2ziPFBB9fF9oTMi" version="21.2.8" type="device" pages="2">
  <diagram id="pj7BtTCpgWlBwVi6q6ME" name="cloudhsm-cluster">
    <mxGraphModel dx="1114" dy="854" grid="1" gridSize="10" guides="1" tooltips="1" connect="1" arrows="1" fold="1" page="1" pageScale="1" pageWidth="1100" pageHeight="850" math="0" shadow="0">
      <root>
        <mxCell id="0" />
        <mxCell id="1" parent="0" />
        <mxCell id="pRH5wLi847LLaeT1fRJ8-19" value="" style="fillColor=none;strokeColor=#147EBA;dashed=1;verticalAlign=top;fontStyle=1;fontColor=#147EBA;labelPosition=center;verticalLabelPosition=bottom;align=center;strokeWidth=2;" parent="1" vertex="1">
          <mxGeometry x="180" y="597" width="1040" height="370" as="geometry" />
        </mxCell>
        <mxCell id="pRH5wLi847LLaeT1fRJ8-14" value="&lt;font color=&quot;#000000&quot;&gt;AWS CloudHSM VPC&lt;/font&gt;" style="points=[[0,0],[0.25,0],[0.5,0],[0.75,0],[1,0],[1,0.25],[1,0.5],[1,0.75],[1,1],[0.75,1],[0.5,1],[0.25,1],[0,1],[0,0.75],[0,0.5],[0,0.25]];outlineConnect=0;gradientColor=none;html=1;whiteSpace=wrap;fontSize=12;fontStyle=1;shape=mxgraph.aws4.group;grIcon=mxgraph.aws4.group_vpc;strokeColor=#248814;fillColor=none;verticalAlign=top;align=left;spacingLeft=30;fontColor=#AAB7B8;dashed=0;" parent="1" vertex="1">
          <mxGeometry x="982" y="50" width="268" height="940" as="geometry" />
        </mxCell>
        <mxCell id="pRH5wLi847LLaeT1fRJ8-2" value="Customer AWS Account" style="points=[[0,0],[0.25,0],[0.5,0],[0.75,0],[1,0],[1,0.25],[1,0.5],[1,0.75],[1,1],[0.75,1],[0.5,1],[0.25,1],[0,1],[0,0.75],[0,0.5],[0,0.25]];outlineConnect=0;gradientColor=none;html=1;whiteSpace=wrap;fontSize=12;fontStyle=1;shape=mxgraph.aws4.group;grIcon=mxgraph.aws4.group_aws_cloud;strokeColor=#232F3E;fillColor=none;verticalAlign=top;align=left;spacingLeft=30;fontColor=#232F3E;dashed=0;" parent="1" vertex="1">
          <mxGeometry x="110" y="20" width="787" height="1120" as="geometry" />
        </mxCell>
        <mxCell id="pRH5wLi847LLaeT1fRJ8-16" value="&lt;font color=&quot;#000000&quot;&gt;Customer VPC&lt;/font&gt;" style="points=[[0,0],[0.25,0],[0.5,0],[0.75,0],[1,0],[1,0.25],[1,0.5],[1,0.75],[1,1],[0.75,1],[0.5,1],[0.25,1],[0,1],[0,0.75],[0,0.5],[0,0.25]];outlineConnect=0;gradientColor=none;html=1;whiteSpace=wrap;fontSize=12;fontStyle=1;shape=mxgraph.aws4.group;grIcon=mxgraph.aws4.group_vpc;strokeColor=#248814;fillColor=none;verticalAlign=top;align=left;spacingLeft=30;fontColor=#AAB7B8;dashed=0;" parent="1" vertex="1">
          <mxGeometry x="150" y="60" width="707" height="930" as="geometry" />
        </mxCell>
        <mxCell id="pRH5wLi847LLaeT1fRJ8-30" value="Private subnet 3" style="points=[[0,0],[0.25,0],[0.5,0],[0.75,0],[1,0],[1,0.25],[1,0.5],[1,0.75],[1,1],[0.75,1],[0.5,1],[0.25,1],[0,1],[0,0.75],[0,0.5],[0,0.25]];outlineConnect=0;gradientColor=none;html=1;whiteSpace=wrap;fontSize=12;fontStyle=1;shape=mxgraph.aws4.group;grIcon=mxgraph.aws4.group_security_group;grStroke=0;strokeColor=#147EBA;fillColor=#E6F2F8;verticalAlign=top;align=left;spacingLeft=30;fontColor=#147EBA;dashed=0;" parent="1" vertex="1">
          <mxGeometry x="210" y="622" width="617" height="315" as="geometry" />
        </mxCell>
        <mxCell id="pRH5wLi847LLaeT1fRJ8-26" value="Private subnet 1" style="points=[[0,0],[0.25,0],[0.5,0],[0.75,0],[1,0],[1,0.25],[1,0.5],[1,0.75],[1,1],[0.75,1],[0.5,1],[0.25,1],[0,1],[0,0.75],[0,0.5],[0,0.25]];outlineConnect=0;gradientColor=none;html=1;whiteSpace=wrap;fontSize=12;fontStyle=1;shape=mxgraph.aws4.group;grIcon=mxgraph.aws4.group_security_group;grStroke=0;strokeColor=#147EBA;fillColor=#E6F2F8;verticalAlign=top;align=left;spacingLeft=30;fontColor=#147EBA;dashed=0;" parent="1" vertex="1">
          <mxGeometry x="210" y="120" width="617" height="200" as="geometry" />
        </mxCell>
        <mxCell id="yLabODCpIGAp4FsiewdC-2" value="&lt;b&gt;EC2 mgmt client&lt;br&gt;security group&lt;/b&gt;" style="fillColor=none;strokeColor=#DD3522;verticalAlign=top;fontStyle=0;fontColor=#DD3522;whiteSpace=wrap;html=1;" parent="1" vertex="1">
          <mxGeometry x="480" y="755" width="128.98" height="156" as="geometry" />
        </mxCell>
        <mxCell id="pRH5wLi847LLaeT1fRJ8-15" value="Cluster" style="strokeColor=#5A6C86;dashed=1;verticalAlign=bottom;fontStyle=1;labelPosition=center;verticalLabelPosition=top;align=center;strokeWidth=2;fillColor=#E6E6E6;spacing=12;" parent="1" vertex="1">
          <mxGeometry x="1018" y="140" width="170" height="670" as="geometry" />
        </mxCell>
        <mxCell id="pRH5wLi847LLaeT1fRJ8-18" value="" style="fillColor=none;strokeColor=#147EBA;dashed=1;verticalAlign=top;fontStyle=1;fontColor=#147EBA;labelPosition=center;verticalLabelPosition=bottom;align=center;strokeWidth=2;" parent="1" vertex="1">
          <mxGeometry x="180" y="370" width="1040" height="200" as="geometry" />
        </mxCell>
        <mxCell id="pRH5wLi847LLaeT1fRJ8-20" value="Subnet 1" style="points=[[0,0],[0.25,0],[0.5,0],[0.75,0],[1,0],[1,0.25],[1,0.5],[1,0.75],[1,1],[0.75,1],[0.5,1],[0.25,1],[0,1],[0,0.75],[0,0.5],[0,0.25]];outlineConnect=0;gradientColor=none;html=1;whiteSpace=wrap;fontSize=12;fontStyle=1;shape=mxgraph.aws4.group;grIcon=mxgraph.aws4.group_security_group;grStroke=0;strokeColor=#147EBA;fillColor=#E6F2F8;verticalAlign=top;align=left;spacingLeft=30;fontColor=#147EBA;dashed=0;" parent="1" vertex="1">
          <mxGeometry x="1035" y="160" width="130" height="130" as="geometry" />
        </mxCell>
        <mxCell id="pRH5wLi847LLaeT1fRJ8-21" value="HSM 1" style="points=[[0,0,0],[0.25,0,0],[0.5,0,0],[0.75,0,0],[1,0,0],[0,1,0],[0.25,1,0],[0.5,1,0],[0.75,1,0],[1,1,0],[0,0.25,0],[0,0.5,0],[0,0.75,0],[1,0.25,0],[1,0.5,0],[1,0.75,0]];outlineConnect=0;fontColor=#232F3E;gradientColor=#F54749;gradientDirection=north;fillColor=#C7131F;strokeColor=#ffffff;dashed=0;verticalLabelPosition=bottom;verticalAlign=top;align=center;html=1;fontSize=12;fontStyle=1;aspect=fixed;shape=mxgraph.aws4.resourceIcon;resIcon=mxgraph.aws4.cloudhsm;" parent="1" vertex="1">
          <mxGeometry x="1072.5" y="200" width="50" height="50" as="geometry" />
        </mxCell>
        <mxCell id="pRH5wLi847LLaeT1fRJ8-22" value="Subnet 2" style="points=[[0,0],[0.25,0],[0.5,0],[0.75,0],[1,0],[1,0.25],[1,0.5],[1,0.75],[1,1],[0.75,1],[0.5,1],[0.25,1],[0,1],[0,0.75],[0,0.5],[0,0.25]];outlineConnect=0;gradientColor=none;html=1;whiteSpace=wrap;fontSize=12;fontStyle=1;shape=mxgraph.aws4.group;grIcon=mxgraph.aws4.group_security_group;grStroke=0;strokeColor=#147EBA;fillColor=#E6F2F8;verticalAlign=top;align=left;spacingLeft=30;fontColor=#147EBA;dashed=0;" parent="1" vertex="1">
          <mxGeometry x="1040" y="408.5" width="130" height="130" as="geometry" />
        </mxCell>
        <mxCell id="pRH5wLi847LLaeT1fRJ8-24" value="Subnet 3" style="points=[[0,0],[0.25,0],[0.5,0],[0.75,0],[1,0],[1,0.25],[1,0.5],[1,0.75],[1,1],[0.75,1],[0.5,1],[0.25,1],[0,1],[0,0.75],[0,0.5],[0,0.25]];outlineConnect=0;gradientColor=none;html=1;whiteSpace=wrap;fontSize=12;fontStyle=1;shape=mxgraph.aws4.group;grIcon=mxgraph.aws4.group_security_group;grStroke=0;strokeColor=#147EBA;fillColor=#E6F2F8;verticalAlign=top;align=left;spacingLeft=30;fontColor=#147EBA;dashed=0;" parent="1" vertex="1">
          <mxGeometry x="1040" y="637" width="130" height="130" as="geometry" />
        </mxCell>
        <mxCell id="pRH5wLi847LLaeT1fRJ8-25" value="HSM 3" style="points=[[0,0,0],[0.25,0,0],[0.5,0,0],[0.75,0,0],[1,0,0],[0,1,0],[0.25,1,0],[0.5,1,0],[0.75,1,0],[1,1,0],[0,0.25,0],[0,0.5,0],[0,0.75,0],[1,0.25,0],[1,0.5,0],[1,0.75,0]];outlineConnect=0;fontColor=#232F3E;gradientColor=#F54749;gradientDirection=north;fillColor=#C7131F;strokeColor=#ffffff;dashed=0;verticalLabelPosition=bottom;verticalAlign=top;align=center;html=1;fontSize=12;fontStyle=1;aspect=fixed;shape=mxgraph.aws4.resourceIcon;resIcon=mxgraph.aws4.cloudhsm;" parent="1" vertex="1">
          <mxGeometry x="1077.5" y="677" width="50" height="50" as="geometry" />
        </mxCell>
        <mxCell id="pRH5wLi847LLaeT1fRJ8-27" value="HSM ENI 1" style="outlineConnect=0;fontColor=#232F3E;gradientColor=none;fillColor=#5A30B5;strokeColor=none;dashed=0;verticalLabelPosition=bottom;verticalAlign=top;align=center;html=1;fontSize=12;fontStyle=1;aspect=fixed;pointerEvents=1;shape=mxgraph.aws4.elastic_network_interface;" parent="1" vertex="1">
          <mxGeometry x="737" y="200" width="50" height="50" as="geometry" />
        </mxCell>
        <mxCell id="pRH5wLi847LLaeT1fRJ8-28" value="Private subnet 2" style="points=[[0,0],[0.25,0],[0.5,0],[0.75,0],[1,0],[1,0.25],[1,0.5],[1,0.75],[1,1],[0.75,1],[0.5,1],[0.25,1],[0,1],[0,0.75],[0,0.5],[0,0.25]];outlineConnect=0;gradientColor=none;html=1;whiteSpace=wrap;fontSize=12;fontStyle=1;shape=mxgraph.aws4.group;grIcon=mxgraph.aws4.group_security_group;grStroke=0;strokeColor=#147EBA;fillColor=#E6F2F8;verticalAlign=top;align=left;spacingLeft=30;fontColor=#147EBA;dashed=0;" parent="1" vertex="1">
          <mxGeometry x="210" y="400.75" width="617" height="148.5" as="geometry" />
        </mxCell>
        <mxCell id="pRH5wLi847LLaeT1fRJ8-29" value="HSM ENI 2" style="outlineConnect=0;fontColor=#232F3E;gradientColor=none;fillColor=#5A30B5;strokeColor=none;dashed=0;verticalLabelPosition=bottom;verticalAlign=top;align=center;html=1;fontSize=12;fontStyle=1;aspect=fixed;pointerEvents=1;shape=mxgraph.aws4.elastic_network_interface;" parent="1" vertex="1">
          <mxGeometry x="737" y="448.5" width="50" height="50" as="geometry" />
        </mxCell>
        <mxCell id="pRH5wLi847LLaeT1fRJ8-31" value="HSM ENI 3" style="outlineConnect=0;fontColor=#232F3E;gradientColor=none;fillColor=#5A30B5;strokeColor=none;dashed=0;verticalLabelPosition=bottom;verticalAlign=top;align=center;html=1;fontSize=12;fontStyle=1;aspect=fixed;pointerEvents=1;shape=mxgraph.aws4.elastic_network_interface;" parent="1" vertex="1">
          <mxGeometry x="737" y="677" width="50" height="50" as="geometry" />
        </mxCell>
        <mxCell id="oOPEssyo3X6TjggL7XNR-3" style="edgeStyle=orthogonalEdgeStyle;rounded=0;orthogonalLoop=1;jettySize=auto;html=1;" edge="1" parent="1" source="pRH5wLi847LLaeT1fRJ8-32" target="oOPEssyo3X6TjggL7XNR-2">
          <mxGeometry relative="1" as="geometry" />
        </mxCell>
        <mxCell id="pRH5wLi847LLaeT1fRJ8-33" value="" style="edgeStyle=elbowEdgeStyle;rounded=0;orthogonalLoop=1;jettySize=auto;html=1;fontColor=#000000;endArrow=none;endFill=0;" parent="1" source="pRH5wLi847LLaeT1fRJ8-21" target="pRH5wLi847LLaeT1fRJ8-27" edge="1">
          <mxGeometry relative="1" as="geometry">
            <mxPoint x="1064.5" y="225" as="targetPoint" />
          </mxGeometry>
        </mxCell>
        <mxCell id="pRH5wLi847LLaeT1fRJ8-34" value="" style="edgeStyle=elbowEdgeStyle;rounded=0;orthogonalLoop=1;jettySize=auto;html=1;fontColor=#000000;endArrow=none;endFill=0;exitX=0;exitY=0.5;exitDx=0;exitDy=0;exitPerimeter=0;" parent="1" source="pRH5wLi847LLaeT1fRJ8-23" target="pRH5wLi847LLaeT1fRJ8-29" edge="1">
          <mxGeometry relative="1" as="geometry">
            <mxPoint x="1144.5" y="473" as="sourcePoint" />
            <mxPoint x="787" y="473" as="targetPoint" />
            <Array as="points">
              <mxPoint x="1140" y="474" />
            </Array>
          </mxGeometry>
        </mxCell>
        <mxCell id="pRH5wLi847LLaeT1fRJ8-35" value="" style="edgeStyle=elbowEdgeStyle;rounded=0;orthogonalLoop=1;jettySize=auto;html=1;fontColor=#000000;endArrow=none;endFill=0;exitX=0;exitY=0.5;exitDx=0;exitDy=0;exitPerimeter=0;" parent="1" source="pRH5wLi847LLaeT1fRJ8-25" target="pRH5wLi847LLaeT1fRJ8-31" edge="1">
          <mxGeometry relative="1" as="geometry">
            <mxPoint x="1159.5" y="505.5" as="sourcePoint" />
            <mxPoint x="797" y="505.5" as="targetPoint" />
          </mxGeometry>
        </mxCell>
        <mxCell id="pRH5wLi847LLaeT1fRJ8-36" value="" style="edgeStyle=elbowEdgeStyle;rounded=0;orthogonalLoop=1;jettySize=auto;html=1;fontColor=#000000;endArrow=none;endFill=0;" parent="1" source="pRH5wLi847LLaeT1fRJ8-27" target="pRH5wLi847LLaeT1fRJ8-32" edge="1">
          <mxGeometry relative="1" as="geometry">
            <mxPoint x="1154.5" y="235" as="sourcePoint" />
            <mxPoint x="797" y="235" as="targetPoint" />
            <Array as="points">
              <mxPoint x="680" y="500" />
            </Array>
          </mxGeometry>
        </mxCell>
        <mxCell id="pRH5wLi847LLaeT1fRJ8-38" value="AWS CloudHSM" style="points=[[0,0,0],[0.25,0,0],[0.5,0,0],[0.75,0,0],[1,0,0],[0,1,0],[0.25,1,0],[0.5,1,0],[0.75,1,0],[1,1,0],[0,0.25,0],[0,0.5,0],[0,0.75,0],[1,0.25,0],[1,0.5,0],[1,0.75,0]];outlineConnect=0;fontColor=#232F3E;gradientColor=#F54749;gradientDirection=north;fillColor=#C7131F;strokeColor=#ffffff;dashed=0;verticalLabelPosition=bottom;verticalAlign=top;align=center;html=1;fontSize=12;fontStyle=1;aspect=fixed;shape=mxgraph.aws4.resourceIcon;resIcon=mxgraph.aws4.cloudhsm;" parent="1" vertex="1">
          <mxGeometry x="1334" y="438.5" width="70" height="70" as="geometry" />
        </mxCell>
        <mxCell id="pRH5wLi847LLaeT1fRJ8-43" value="Customer CA&lt;br&gt;certificate" style="outlineConnect=0;fontColor=#232F3E;gradientColor=none;strokeColor=none;dashed=0;verticalLabelPosition=bottom;verticalAlign=top;align=center;html=1;fontSize=12;fontStyle=1;aspect=fixed;pointerEvents=1;shape=mxgraph.aws4.certificate_manager;fillColor=#C7131F;" parent="1" vertex="1">
          <mxGeometry x="410" y="808" width="37.82" height="50" as="geometry" />
        </mxCell>
        <mxCell id="pRH5wLi847LLaeT1fRJ8-44" value="&lt;span style=&quot;color: rgb(20 , 126 , 186) ; font-weight: 700&quot;&gt;AZ 1&lt;/span&gt;" style="text;html=1;strokeColor=none;fillColor=none;align=center;verticalAlign=middle;whiteSpace=wrap;rounded=0;fontColor=#000000;" parent="1" vertex="1">
          <mxGeometry x="901.5" y="100" width="79.5" height="20" as="geometry" />
        </mxCell>
        <mxCell id="pRH5wLi847LLaeT1fRJ8-45" value="&lt;span style=&quot;color: rgb(20 , 126 , 186) ; font-weight: 700&quot;&gt;AZ 2&lt;/span&gt;" style="text;html=1;strokeColor=none;fillColor=none;align=center;verticalAlign=middle;whiteSpace=wrap;rounded=0;fontColor=#000000;" parent="1" vertex="1">
          <mxGeometry x="884.75" y="388.5" width="113" height="20" as="geometry" />
        </mxCell>
        <mxCell id="pRH5wLi847LLaeT1fRJ8-46" value="&lt;span style=&quot;color: rgb(20 , 126 , 186) ; font-weight: 700&quot;&gt;AZ 3&lt;/span&gt;" style="text;html=1;strokeColor=none;fillColor=none;align=center;verticalAlign=middle;whiteSpace=wrap;rounded=0;fontColor=#000000;" parent="1" vertex="1">
          <mxGeometry x="894.75" y="607" width="93" height="20" as="geometry" />
        </mxCell>
        <mxCell id="pRH5wLi847LLaeT1fRJ8-54" value="" style="edgeStyle=elbowEdgeStyle;rounded=0;orthogonalLoop=1;jettySize=auto;html=1;fontColor=#000000;endArrow=none;endFill=0;exitX=1;exitY=0.5;exitDx=0;exitDy=0;exitPerimeter=0;entryX=0;entryY=0.5;entryDx=0;entryDy=0;entryPerimeter=0;" parent="1" source="pRH5wLi847LLaeT1fRJ8-23" target="pRH5wLi847LLaeT1fRJ8-38" edge="1">
          <mxGeometry relative="1" as="geometry">
            <mxPoint x="140" y="483.5" as="sourcePoint" />
            <mxPoint x="244.5700000000004" y="483.5" as="targetPoint" />
          </mxGeometry>
        </mxCell>
        <mxCell id="pRH5wLi847LLaeT1fRJ8-55" value="" style="edgeStyle=elbowEdgeStyle;rounded=0;orthogonalLoop=1;jettySize=auto;html=1;fontColor=#000000;endArrow=none;endFill=0;entryX=0;entryY=0.5;entryDx=0;entryDy=0;entryPerimeter=0;" parent="1" source="pRH5wLi847LLaeT1fRJ8-21" target="pRH5wLi847LLaeT1fRJ8-38" edge="1">
          <mxGeometry relative="1" as="geometry">
            <mxPoint x="1249.5" y="483.5" as="sourcePoint" />
            <mxPoint x="1437" y="483.5" as="targetPoint" />
            <Array as="points">
              <mxPoint x="1280" y="360" />
            </Array>
          </mxGeometry>
        </mxCell>
        <mxCell id="pRH5wLi847LLaeT1fRJ8-56" value="" style="edgeStyle=elbowEdgeStyle;rounded=0;orthogonalLoop=1;jettySize=auto;html=1;fontColor=#000000;endArrow=none;endFill=0;entryX=0;entryY=0.5;entryDx=0;entryDy=0;entryPerimeter=0;exitX=1;exitY=0.5;exitDx=0;exitDy=0;exitPerimeter=0;" parent="1" source="pRH5wLi847LLaeT1fRJ8-25" target="pRH5wLi847LLaeT1fRJ8-38" edge="1">
          <mxGeometry relative="1" as="geometry">
            <mxPoint x="1244.5" y="235" as="sourcePoint" />
            <mxPoint x="1437" y="483.5" as="targetPoint" />
            <Array as="points">
              <mxPoint x="1280" y="570" />
            </Array>
          </mxGeometry>
        </mxCell>
        <mxCell id="pRH5wLi847LLaeT1fRJ8-23" value="HSM 2" style="points=[[0,0,0],[0.25,0,0],[0.5,0,0],[0.75,0,0],[1,0,0],[0,1,0],[0.25,1,0],[0.5,1,0],[0.75,1,0],[1,1,0],[0,0.25,0],[0,0.5,0],[0,0.75,0],[1,0.25,0],[1,0.5,0],[1,0.75,0]];outlineConnect=0;fontColor=#232F3E;gradientColor=#F54749;gradientDirection=north;fillColor=#C7131F;strokeColor=#ffffff;dashed=0;verticalLabelPosition=bottom;verticalAlign=top;align=center;html=1;fontSize=12;fontStyle=1;aspect=fixed;shape=mxgraph.aws4.resourceIcon;resIcon=mxgraph.aws4.cloudhsm;" parent="1" vertex="1">
          <mxGeometry x="1077.5" y="448.5" width="50" height="50" as="geometry" />
        </mxCell>
        <mxCell id="tb7pY16vxuhi_PRvgd1s-7" style="edgeStyle=orthogonalEdgeStyle;rounded=0;orthogonalLoop=1;jettySize=auto;html=1;" parent="1" source="tb7pY16vxuhi_PRvgd1s-1" edge="1">
          <mxGeometry relative="1" as="geometry">
            <mxPoint x="740" y="702" as="targetPoint" />
          </mxGeometry>
        </mxCell>
        <mxCell id="tb7pY16vxuhi_PRvgd1s-1" value="&lt;b&gt;App client&lt;/b&gt;" style="outlineConnect=0;fontColor=#232F3E;gradientColor=none;fillColor=#D86613;strokeColor=none;dashed=0;verticalLabelPosition=bottom;verticalAlign=top;align=center;html=1;fontSize=12;fontStyle=0;aspect=fixed;pointerEvents=1;shape=mxgraph.aws4.instance2;" parent="1" vertex="1">
          <mxGeometry x="370" y="677" width="50" height="50" as="geometry" />
        </mxCell>
        <mxCell id="tb7pY16vxuhi_PRvgd1s-2" value="&lt;b&gt;App client&lt;br&gt;security group&lt;/b&gt;" style="fillColor=none;strokeColor=#DD3522;verticalAlign=top;fontStyle=0;fontColor=#DD3522;whiteSpace=wrap;html=1;" parent="1" vertex="1">
          <mxGeometry x="346.5" y="150" width="97" height="610" as="geometry" />
        </mxCell>
        <mxCell id="tb7pY16vxuhi_PRvgd1s-6" style="edgeStyle=orthogonalEdgeStyle;rounded=0;orthogonalLoop=1;jettySize=auto;html=1;" parent="1" source="tb7pY16vxuhi_PRvgd1s-3" target="pRH5wLi847LLaeT1fRJ8-29" edge="1">
          <mxGeometry relative="1" as="geometry">
            <Array as="points">
              <mxPoint x="540" y="474" />
              <mxPoint x="540" y="474" />
            </Array>
          </mxGeometry>
        </mxCell>
        <mxCell id="tb7pY16vxuhi_PRvgd1s-3" value="&lt;b&gt;App client&lt;/b&gt;" style="outlineConnect=0;fontColor=#232F3E;gradientColor=none;fillColor=#D86613;strokeColor=none;dashed=0;verticalLabelPosition=bottom;verticalAlign=top;align=center;html=1;fontSize=12;fontStyle=0;aspect=fixed;pointerEvents=1;shape=mxgraph.aws4.instance2;" parent="1" vertex="1">
          <mxGeometry x="370" y="448.5" width="50" height="50" as="geometry" />
        </mxCell>
        <mxCell id="tb7pY16vxuhi_PRvgd1s-5" style="edgeStyle=orthogonalEdgeStyle;rounded=0;orthogonalLoop=1;jettySize=auto;html=1;" parent="1" source="tb7pY16vxuhi_PRvgd1s-4" target="pRH5wLi847LLaeT1fRJ8-27" edge="1">
          <mxGeometry relative="1" as="geometry">
            <Array as="points" />
          </mxGeometry>
        </mxCell>
        <mxCell id="tb7pY16vxuhi_PRvgd1s-4" value="&lt;b&gt;App client&lt;/b&gt;" style="outlineConnect=0;fontColor=#232F3E;gradientColor=none;fillColor=#D86613;strokeColor=none;dashed=0;verticalLabelPosition=bottom;verticalAlign=top;align=center;html=1;fontSize=12;fontStyle=0;aspect=fixed;pointerEvents=1;shape=mxgraph.aws4.instance2;" parent="1" vertex="1">
          <mxGeometry x="370" y="200" width="50" height="50" as="geometry" />
        </mxCell>
        <mxCell id="yLabODCpIGAp4FsiewdC-1" value="&lt;b&gt;Cluster security group&lt;/b&gt;" style="fillColor=none;strokeColor=#DD3522;verticalAlign=top;fontStyle=0;fontColor=#DD3522;whiteSpace=wrap;html=1;" parent="1" vertex="1">
          <mxGeometry x="712" y="150" width="100" height="610" as="geometry" />
        </mxCell>
        <mxCell id="pRH5wLi847LLaeT1fRJ8-17" value="" style="fillColor=none;strokeColor=#147EBA;dashed=1;verticalAlign=top;fontStyle=1;fontColor=#147EBA;labelPosition=center;verticalLabelPosition=bottom;align=center;strokeWidth=2;" parent="1" vertex="1">
          <mxGeometry x="180" y="90" width="1040" height="250" as="geometry" />
        </mxCell>
        <mxCell id="oOPEssyo3X6TjggL7XNR-2" value="CloudWatch Logs&lt;br&gt;log group&lt;br&gt;&lt;font color=&quot;#000000&quot; style=&quot;font-weight: normal;&quot; face=&quot;Courier New&quot;&gt;/&amp;lt;pSystem&amp;gt;-&amp;lt;pEnvPurpose&amp;gt;/ec2-client&lt;/font&gt;" style="sketch=0;outlineConnect=0;fontColor=#232F3E;gradientColor=none;fillColor=#B0084D;strokeColor=none;dashed=0;verticalLabelPosition=bottom;verticalAlign=top;align=center;html=1;fontSize=12;fontStyle=1;aspect=fixed;pointerEvents=1;shape=mxgraph.aws4.logs;" vertex="1" parent="1">
          <mxGeometry x="518" y="1030" width="53.79" height="40" as="geometry" />
        </mxCell>
        <mxCell id="oOPEssyo3X6TjggL7XNR-6" style="edgeStyle=orthogonalEdgeStyle;rounded=0;orthogonalLoop=1;jettySize=auto;html=1;entryX=0.5;entryY=1;entryDx=0;entryDy=0;startArrow=classic;startFill=1;endArrow=none;endFill=0;" edge="1" parent="1" source="oOPEssyo3X6TjggL7XNR-4" target="pRH5wLi847LLaeT1fRJ8-15">
          <mxGeometry relative="1" as="geometry" />
        </mxCell>
        <mxCell id="oOPEssyo3X6TjggL7XNR-4" value="CloudWatch Logs&lt;br&gt;log group&lt;br&gt;&lt;font color=&quot;#000000&quot; style=&quot;font-weight: normal;&quot; face=&quot;Courier New&quot;&gt;/aws/cloudhsm/&amp;lt;cluster ID&amp;gt;&lt;/font&gt;" style="sketch=0;outlineConnect=0;fontColor=#232F3E;gradientColor=none;fillColor=#B0084D;strokeColor=none;dashed=0;verticalLabelPosition=bottom;verticalAlign=top;align=center;html=1;fontSize=12;fontStyle=1;aspect=fixed;pointerEvents=1;shape=mxgraph.aws4.logs;" vertex="1" parent="1">
          <mxGeometry x="768.21" y="1030" width="53.79" height="40" as="geometry" />
        </mxCell>
        <mxCell id="pRH5wLi847LLaeT1fRJ8-32" value="&lt;b&gt;CloudHSM&lt;br&gt;EC2 mgmt client&lt;/b&gt;" style="outlineConnect=0;fontColor=#232F3E;gradientColor=none;fillColor=#D86613;strokeColor=none;dashed=0;verticalLabelPosition=bottom;verticalAlign=top;align=center;html=1;fontSize=12;fontStyle=0;aspect=fixed;pointerEvents=1;shape=mxgraph.aws4.instance2;" parent="1" vertex="1">
          <mxGeometry x="519.49" y="801" width="50" height="50" as="geometry" />
        </mxCell>
      </root>
    </mxGraphModel>
  </diagram>
  <diagram id="g70IaXKOi9dgWWWwPPgG" name="lifecycle-automation">
    <mxGraphModel dx="3685" dy="2839" grid="1" gridSize="10" guides="1" tooltips="1" connect="1" arrows="1" fold="1" page="1" pageScale="1" pageWidth="1100" pageHeight="850" math="0" shadow="0">
      <root>
        <mxCell id="IIw93woYsKADVbD83Coo-0" />
        <mxCell id="IIw93woYsKADVbD83Coo-1" parent="IIw93woYsKADVbD83Coo-0" />
        <mxCell id="by1b-JIzre9-LZ3P0T1U-13" value="&lt;b style=&quot;border-color: var(--border-color);&quot;&gt;State machine&lt;br style=&quot;border-color: var(--border-color);&quot;&gt;steps&lt;/b&gt;" style="sketch=0;outlineConnect=0;fontColor=#000000;gradientColor=none;fillColor=#D45B07;strokeColor=none;dashed=0;verticalLabelPosition=top;verticalAlign=bottom;align=center;html=1;fontSize=12;fontStyle=0;aspect=fixed;pointerEvents=1;shape=mxgraph.aws4.lambda_function;labelPosition=center;spacing=12;" parent="IIw93woYsKADVbD83Coo-1" vertex="1">
          <mxGeometry x="-521.6599999999999" y="-1201" width="48" height="48" as="geometry" />
        </mxCell>
        <mxCell id="XmeZFoYHQyAq_rZ3qakS-4" style="edgeStyle=orthogonalEdgeStyle;rounded=0;orthogonalLoop=1;jettySize=auto;html=1;entryX=0;entryY=0.5;entryDx=0;entryDy=0;entryPerimeter=0;fontColor=#000000;" parent="IIw93woYsKADVbD83Coo-1" source="by1b-JIzre9-LZ3P0T1U-0" target="aU_5hhA1DcuCYL4VoEHh-48" edge="1">
          <mxGeometry relative="1" as="geometry">
            <mxPoint x="-491.65999999999985" y="-1169" as="sourcePoint" />
            <Array as="points">
              <mxPoint x="-370" y="-1150" />
              <mxPoint x="-370" y="-1288" />
            </Array>
          </mxGeometry>
        </mxCell>
        <mxCell id="XmeZFoYHQyAq_rZ3qakS-5" style="edgeStyle=orthogonalEdgeStyle;rounded=0;orthogonalLoop=1;jettySize=auto;html=1;entryX=0;entryY=0.5;entryDx=0;entryDy=0;entryPerimeter=0;fontColor=#000000;" parent="IIw93woYsKADVbD83Coo-1" source="by1b-JIzre9-LZ3P0T1U-0" target="by1b-JIzre9-LZ3P0T1U-10" edge="1">
          <mxGeometry relative="1" as="geometry">
            <Array as="points">
              <mxPoint x="-370" y="-1150" />
              <mxPoint x="-370" y="-1091" />
            </Array>
          </mxGeometry>
        </mxCell>
        <mxCell id="gkyDb22YOkWvIgiX76X0-1" style="edgeStyle=orthogonalEdgeStyle;rounded=0;orthogonalLoop=1;jettySize=auto;html=1;entryX=0;entryY=0.5;entryDx=0;entryDy=0;entryPerimeter=0;fontColor=#000000;" parent="IIw93woYsKADVbD83Coo-1" source="by1b-JIzre9-LZ3P0T1U-0" target="gkyDb22YOkWvIgiX76X0-0" edge="1">
          <mxGeometry relative="1" as="geometry">
            <mxPoint x="-261.65999999999985" y="-1439" as="targetPoint" />
            <Array as="points">
              <mxPoint x="-370" y="-1150" />
              <mxPoint x="-370" y="-1470" />
            </Array>
          </mxGeometry>
        </mxCell>
        <mxCell id="gxDQVVSuupn7LXhFRuub-9" value="&lt;b&gt;&lt;font&gt;CloudHSM SDK&lt;br&gt;client and CLI packages&lt;/font&gt;&lt;/b&gt;" style="fillColor=none;strokeColor=#5A6C86;dashed=1;verticalAlign=top;fontStyle=0;fontColor=#000000;whiteSpace=wrap;html=1;strokeWidth=2;labelPosition=center;verticalLabelPosition=bottom;align=center;" parent="IIw93woYsKADVbD83Coo-1" vertex="1">
          <mxGeometry x="360.00000000000006" y="-954" width="310" height="96" as="geometry" />
        </mxCell>
        <mxCell id="gxDQVVSuupn7LXhFRuub-1" value="&lt;b&gt;&lt;font&gt;CloudHSM cluster&lt;/font&gt;&lt;/b&gt;" style="fillColor=none;strokeColor=#5A6C86;dashed=1;verticalAlign=top;fontStyle=0;fontColor=#000000;whiteSpace=wrap;html=1;strokeWidth=2;" parent="IIw93woYsKADVbD83Coo-1" vertex="1">
          <mxGeometry x="-80.65999999999985" y="-1144" width="275" height="106" as="geometry" />
        </mxCell>
        <mxCell id="by1b-JIzre9-LZ3P0T1U-14" value="" style="ellipse;whiteSpace=wrap;html=1;aspect=fixed;strokeColor=none;fontColor=#000000;" parent="IIw93woYsKADVbD83Coo-1" vertex="1">
          <mxGeometry x="-546" y="-1182" width="50" height="50" as="geometry" />
        </mxCell>
        <mxCell id="XmeZFoYHQyAq_rZ3qakS-1" style="edgeStyle=orthogonalEdgeStyle;rounded=0;orthogonalLoop=1;jettySize=auto;html=1;fontColor=#000000;" parent="IIw93woYsKADVbD83Coo-1" source="WmZNfnQTcidVNB5g49Xm-1" target="NnXrEWMzQ3F-WvH5LUov-3" edge="1">
          <mxGeometry relative="1" as="geometry" />
        </mxCell>
        <mxCell id="WmZNfnQTcidVNB5g49Xm-1" value="CloudHSM&lt;br&gt;CloudFormation&lt;br&gt;template" style="outlineConnect=0;fontColor=#000000;gradientColor=none;fillColor=#BC1356;strokeColor=none;dashed=0;verticalLabelPosition=top;verticalAlign=bottom;align=center;html=1;fontSize=12;fontStyle=1;aspect=fixed;pointerEvents=1;shape=mxgraph.aws4.template;labelPosition=center;spacing=12;" parent="IIw93woYsKADVbD83Coo-1" vertex="1">
          <mxGeometry x="-1130" y="-1189.5" width="53.33" height="64" as="geometry" />
        </mxCell>
        <mxCell id="XmeZFoYHQyAq_rZ3qakS-8" style="edgeStyle=orthogonalEdgeStyle;rounded=0;orthogonalLoop=1;jettySize=auto;html=1;fontColor=#000000;" parent="IIw93woYsKADVbD83Coo-1" source="NnXrEWMzQ3F-WvH5LUov-0" target="XmeZFoYHQyAq_rZ3qakS-0" edge="1">
          <mxGeometry relative="1" as="geometry" />
        </mxCell>
        <mxCell id="_368dQrQwcm4wDbVw00a-6" style="edgeStyle=orthogonalEdgeStyle;rounded=0;orthogonalLoop=1;jettySize=auto;html=1;" edge="1" parent="IIw93woYsKADVbD83Coo-1" source="NnXrEWMzQ3F-WvH5LUov-0" target="_368dQrQwcm4wDbVw00a-5">
          <mxGeometry relative="1" as="geometry" />
        </mxCell>
        <mxCell id="NnXrEWMzQ3F-WvH5LUov-0" value="&lt;b&gt;Run command&lt;br&gt;via Step Functions&lt;br&gt;document&lt;/b&gt;" style="sketch=0;outlineConnect=0;fontColor=#000000;gradientColor=none;fillColor=#B0084D;strokeColor=none;dashed=0;verticalLabelPosition=top;verticalAlign=bottom;align=center;html=1;fontSize=12;fontStyle=0;aspect=fixed;pointerEvents=1;shape=mxgraph.aws4.documents;labelPosition=center;spacing=12;" parent="IIw93woYsKADVbD83Coo-1" vertex="1">
          <mxGeometry x="95.34000000000015" y="-945" width="64" height="78" as="geometry" />
        </mxCell>
        <mxCell id="XmeZFoYHQyAq_rZ3qakS-9" style="edgeStyle=orthogonalEdgeStyle;rounded=0;orthogonalLoop=1;jettySize=auto;html=1;fontColor=#000000;" parent="IIw93woYsKADVbD83Coo-1" source="NnXrEWMzQ3F-WvH5LUov-1" target="NnXrEWMzQ3F-WvH5LUov-0" edge="1">
          <mxGeometry relative="1" as="geometry" />
        </mxCell>
        <mxCell id="NnXrEWMzQ3F-WvH5LUov-1" value="&lt;b&gt;AWS Systems Manager&lt;br&gt;run command&lt;/b&gt;" style="sketch=0;outlineConnect=0;fontColor=#000000;gradientColor=none;fillColor=#B0084D;strokeColor=none;dashed=0;verticalLabelPosition=bottom;verticalAlign=top;align=center;html=1;fontSize=12;fontStyle=0;aspect=fixed;pointerEvents=1;shape=mxgraph.aws4.run_command;" parent="IIw93woYsKADVbD83Coo-1" vertex="1">
          <mxGeometry x="-64.65999999999985" y="-933.5" width="78" height="55" as="geometry" />
        </mxCell>
        <mxCell id="XmeZFoYHQyAq_rZ3qakS-2" style="edgeStyle=orthogonalEdgeStyle;rounded=0;orthogonalLoop=1;jettySize=auto;html=1;fontColor=#000000;" parent="IIw93woYsKADVbD83Coo-1" source="NnXrEWMzQ3F-WvH5LUov-3" target="by1b-JIzre9-LZ3P0T1U-1" edge="1">
          <mxGeometry relative="1" as="geometry" />
        </mxCell>
        <mxCell id="_368dQrQwcm4wDbVw00a-0" style="edgeStyle=orthogonalEdgeStyle;rounded=0;orthogonalLoop=1;jettySize=auto;html=1;" edge="1" parent="IIw93woYsKADVbD83Coo-1" source="NnXrEWMzQ3F-WvH5LUov-3" target="PWMy732j62kX_Gch8o0x-0">
          <mxGeometry relative="1" as="geometry" />
        </mxCell>
        <mxCell id="NnXrEWMzQ3F-WvH5LUov-3" value="&lt;b&gt;CloudHSM cluster&lt;br&gt;custom resource&lt;/b&gt;" style="sketch=0;outlineConnect=0;fontColor=#000000;gradientColor=none;fillColor=#D45B07;strokeColor=none;dashed=0;verticalLabelPosition=top;verticalAlign=bottom;align=center;html=1;fontSize=12;fontStyle=0;aspect=fixed;pointerEvents=1;shape=mxgraph.aws4.lambda_function;labelPosition=center;spacing=12;" parent="IIw93woYsKADVbD83Coo-1" vertex="1">
          <mxGeometry x="-967.8299999999999" y="-1182" width="48" height="48" as="geometry" />
        </mxCell>
        <mxCell id="gkyDb22YOkWvIgiX76X0-8" style="edgeStyle=orthogonalEdgeStyle;rounded=0;orthogonalLoop=1;jettySize=auto;html=1;entryX=0;entryY=0.5;entryDx=0;entryDy=0;fontColor=#000000;" parent="IIw93woYsKADVbD83Coo-1" source="aU_5hhA1DcuCYL4VoEHh-48" target="by1b-JIzre9-LZ3P0T1U-5" edge="1">
          <mxGeometry relative="1" as="geometry" />
        </mxCell>
        <mxCell id="aU_5hhA1DcuCYL4VoEHh-48" value="&lt;b&gt;AWS Secrets Manager&lt;/b&gt;" style="sketch=0;points=[[0,0,0],[0.25,0,0],[0.5,0,0],[0.75,0,0],[1,0,0],[0,1,0],[0.25,1,0],[0.5,1,0],[0.75,1,0],[1,1,0],[0,0.25,0],[0,0.5,0],[0,0.75,0],[1,0.25,0],[1,0.5,0],[1,0.75,0]];outlineConnect=0;fontColor=#000000;gradientColor=#F54749;gradientDirection=north;fillColor=#C7131F;strokeColor=#ffffff;dashed=0;verticalLabelPosition=bottom;verticalAlign=top;align=center;html=1;fontSize=12;fontStyle=0;aspect=fixed;shape=mxgraph.aws4.resourceIcon;resIcon=mxgraph.aws4.secrets_manager;" parent="IIw93woYsKADVbD83Coo-1" vertex="1">
          <mxGeometry x="-221.65999999999985" y="-1323" width="70" height="70" as="geometry" />
        </mxCell>
        <mxCell id="by1b-JIzre9-LZ3P0T1U-5" value="" style="strokeColor=#5A6C86;dashed=1;verticalAlign=top;fontStyle=1;labelPosition=center;verticalLabelPosition=middle;align=center;strokeWidth=2;fillColor=none;fontColor=#000000;" parent="IIw93woYsKADVbD83Coo-1" vertex="1">
          <mxGeometry x="-81.66" y="-1386" width="791.66" height="196" as="geometry" />
        </mxCell>
        <mxCell id="by1b-JIzre9-LZ3P0T1U-6" value="Initial crypto&lt;br&gt;officer password&amp;nbsp;&lt;br&gt;&lt;span style=&quot;font-weight: normal;&quot;&gt;&lt;font face=&quot;Courier New&quot;&gt;.../initial-crypto-officer-password&lt;/font&gt;&lt;/span&gt;" style="outlineConnect=0;fontColor=#000000;gradientColor=none;fillColor=#C7131F;strokeColor=none;dashed=0;verticalLabelPosition=bottom;verticalAlign=top;align=center;html=1;fontSize=12;fontStyle=1;aspect=fixed;pointerEvents=1;shape=mxgraph.aws4.long_term_security_credential;labelPosition=center;spacing=12;" parent="IIw93woYsKADVbD83Coo-1" vertex="1">
          <mxGeometry x="530.0000000000002" y="-1336" width="56.52" height="50" as="geometry" />
        </mxCell>
        <mxCell id="by1b-JIzre9-LZ3P0T1U-8" value="CloudHSM&lt;br&gt;cluster&lt;br&gt;certificate&lt;br&gt;&lt;font style=&quot;font-weight: normal;&quot; face=&quot;Courier New&quot;&gt;.../cluster-cert&lt;/font&gt;" style="outlineConnect=0;fontColor=#000000;gradientColor=none;strokeColor=none;dashed=0;verticalLabelPosition=bottom;verticalAlign=top;align=center;html=1;fontSize=12;fontStyle=1;aspect=fixed;pointerEvents=1;shape=mxgraph.aws4.certificate_manager;fillColor=#C7131F;labelPosition=center;spacing=10;" parent="IIw93woYsKADVbD83Coo-1" vertex="1">
          <mxGeometry x="154.24000000000007" y="-1336" width="37.82" height="50" as="geometry" />
        </mxCell>
        <mxCell id="by1b-JIzre9-LZ3P0T1U-9" value="CloudHSM&lt;br&gt;cluster&lt;br&gt;CSR&lt;br&gt;&lt;span style=&quot;font-weight: normal;&quot;&gt;&lt;font face=&quot;Courier New&quot;&gt;.../cluster-csr&lt;/font&gt;&lt;/span&gt;" style="outlineConnect=0;fontColor=#000000;gradientColor=none;strokeColor=none;dashed=0;verticalLabelPosition=bottom;verticalAlign=top;align=center;html=1;fontSize=12;fontStyle=1;aspect=fixed;pointerEvents=1;shape=mxgraph.aws4.certificate_manager;fillColor=#C7131F;labelPosition=center;spacing=10;" parent="IIw93woYsKADVbD83Coo-1" vertex="1">
          <mxGeometry x="-7.389999999999773" y="-1336" width="37.82" height="50" as="geometry" />
        </mxCell>
        <mxCell id="gxDQVVSuupn7LXhFRuub-3" style="edgeStyle=orthogonalEdgeStyle;rounded=0;orthogonalLoop=1;jettySize=auto;html=1;entryX=0;entryY=0.5;entryDx=0;entryDy=0;fontColor=#000000;" parent="IIw93woYsKADVbD83Coo-1" source="by1b-JIzre9-LZ3P0T1U-10" target="gxDQVVSuupn7LXhFRuub-1" edge="1">
          <mxGeometry relative="1" as="geometry" />
        </mxCell>
        <mxCell id="by1b-JIzre9-LZ3P0T1U-10" value="AWS CloudHSM" style="points=[[0,0,0],[0.25,0,0],[0.5,0,0],[0.75,0,0],[1,0,0],[0,1,0],[0.25,1,0],[0.5,1,0],[0.75,1,0],[1,1,0],[0,0.25,0],[0,0.5,0],[0,0.75,0],[1,0.25,0],[1,0.5,0],[1,0.75,0]];outlineConnect=0;fontColor=#000000;gradientColor=#F54749;gradientDirection=north;fillColor=#C7131F;strokeColor=#ffffff;dashed=0;verticalLabelPosition=bottom;verticalAlign=top;align=center;html=1;fontSize=12;fontStyle=1;aspect=fixed;shape=mxgraph.aws4.resourceIcon;resIcon=mxgraph.aws4.cloudhsm;" parent="IIw93woYsKADVbD83Coo-1" vertex="1">
          <mxGeometry x="-221.65999999999985" y="-1126" width="70" height="70" as="geometry" />
        </mxCell>
        <mxCell id="gxDQVVSuupn7LXhFRuub-12" style="edgeStyle=orthogonalEdgeStyle;rounded=0;orthogonalLoop=1;jettySize=auto;html=1;entryX=0;entryY=0.5;entryDx=0;entryDy=0;entryPerimeter=0;fontColor=#000000;" parent="IIw93woYsKADVbD83Coo-1" source="by1b-JIzre9-LZ3P0T1U-0" edge="1">
          <mxGeometry relative="1" as="geometry">
            <Array as="points">
              <mxPoint x="-370" y="-1150" />
              <mxPoint x="-370" y="-900" />
            </Array>
            <mxPoint x="-496.00054593844516" y="-1144" as="sourcePoint" />
            <mxPoint x="-221.65999999999985" y="-900" as="targetPoint" />
          </mxGeometry>
        </mxCell>
        <mxCell id="_368dQrQwcm4wDbVw00a-4" style="edgeStyle=orthogonalEdgeStyle;rounded=0;orthogonalLoop=1;jettySize=auto;html=1;" edge="1" parent="IIw93woYsKADVbD83Coo-1" source="by1b-JIzre9-LZ3P0T1U-0" target="_368dQrQwcm4wDbVw00a-1">
          <mxGeometry relative="1" as="geometry" />
        </mxCell>
        <mxCell id="by1b-JIzre9-LZ3P0T1U-0" value="" style="sketch=0;outlineConnect=0;fontColor=#000000;gradientColor=none;fillColor=#D45B07;strokeColor=none;dashed=0;verticalLabelPosition=top;verticalAlign=bottom;align=center;html=1;fontSize=12;fontStyle=0;aspect=fixed;pointerEvents=1;shape=mxgraph.aws4.lambda_function;labelPosition=center;spacing=12;" parent="IIw93woYsKADVbD83Coo-1" vertex="1">
          <mxGeometry x="-544" y="-1181.5" width="48" height="48" as="geometry" />
        </mxCell>
        <mxCell id="T0s1u9l-oCiM07zSL38j-4" style="edgeStyle=orthogonalEdgeStyle;rounded=0;orthogonalLoop=1;jettySize=auto;html=1;entryX=1;entryY=0.5;entryDx=0;entryDy=0;" edge="1" parent="IIw93woYsKADVbD83Coo-1" source="XmeZFoYHQyAq_rZ3qakS-0" target="gxDQVVSuupn7LXhFRuub-1">
          <mxGeometry relative="1" as="geometry">
            <Array as="points">
              <mxPoint x="290" y="-1091" />
            </Array>
          </mxGeometry>
        </mxCell>
        <mxCell id="T0s1u9l-oCiM07zSL38j-5" value="&lt;b&gt;Activate cluster&lt;/b&gt;" style="edgeLabel;html=1;align=center;verticalAlign=middle;resizable=0;points=[];" vertex="1" connectable="0" parent="T0s1u9l-oCiM07zSL38j-4">
          <mxGeometry x="-0.2733" relative="1" as="geometry">
            <mxPoint as="offset" />
          </mxGeometry>
        </mxCell>
        <mxCell id="XmeZFoYHQyAq_rZ3qakS-0" value="&lt;b&gt;CloudHSM&lt;br&gt;EC2 Client&lt;/b&gt;" style="outlineConnect=0;fontColor=#000000;gradientColor=none;fillColor=#D86613;strokeColor=none;dashed=0;verticalLabelPosition=bottom;verticalAlign=top;align=center;html=1;fontSize=12;fontStyle=0;aspect=fixed;pointerEvents=1;shape=mxgraph.aws4.instance2;" parent="IIw93woYsKADVbD83Coo-1" vertex="1">
          <mxGeometry x="265.34000000000015" y="-931" width="50" height="50" as="geometry" />
        </mxCell>
        <mxCell id="by1b-JIzre9-LZ3P0T1U-2" value="State machine&lt;br style=&quot;border-color: var(--border-color);&quot;&gt;workflows" style="outlineConnect=0;fontColor=#000000;gradientColor=none;fillColor=#BC1356;strokeColor=none;dashed=0;verticalLabelPosition=top;verticalAlign=bottom;align=center;html=1;fontSize=12;fontStyle=1;aspect=fixed;pointerEvents=1;shape=mxgraph.aws4.template;labelPosition=center;spacing=12;" parent="IIw93woYsKADVbD83Coo-1" vertex="1">
          <mxGeometry x="-751.66" y="-1200" width="53.33" height="64" as="geometry" />
        </mxCell>
        <mxCell id="by1b-JIzre9-LZ3P0T1U-4" value="" style="group;fontColor=#000000;labelPosition=center;verticalLabelPosition=top;align=center;verticalAlign=bottom;spacing=12;" parent="IIw93woYsKADVbD83Coo-1" vertex="1" connectable="0">
          <mxGeometry x="-761.66" y="-1189" width="56.940000000000055" height="64" as="geometry" />
        </mxCell>
        <mxCell id="by1b-JIzre9-LZ3P0T1U-3" value="" style="rounded=0;whiteSpace=wrap;html=1;strokeColor=none;fontColor=#000000;" parent="by1b-JIzre9-LZ3P0T1U-4" vertex="1">
          <mxGeometry width="56.94" height="64" as="geometry" />
        </mxCell>
        <mxCell id="by1b-JIzre9-LZ3P0T1U-1" value="" style="outlineConnect=0;fontColor=#000000;gradientColor=none;fillColor=#BC1356;strokeColor=none;dashed=0;verticalLabelPosition=bottom;verticalAlign=top;align=center;html=1;fontSize=12;fontStyle=1;aspect=fixed;pointerEvents=1;shape=mxgraph.aws4.template;" parent="by1b-JIzre9-LZ3P0T1U-4" vertex="1">
          <mxGeometry width="53.33" height="64" as="geometry" />
        </mxCell>
        <mxCell id="XmeZFoYHQyAq_rZ3qakS-3" style="edgeStyle=orthogonalEdgeStyle;rounded=0;orthogonalLoop=1;jettySize=auto;html=1;fontColor=#000000;" parent="IIw93woYsKADVbD83Coo-1" source="by1b-JIzre9-LZ3P0T1U-1" target="by1b-JIzre9-LZ3P0T1U-0" edge="1">
          <mxGeometry relative="1" as="geometry" />
        </mxCell>
        <mxCell id="gkyDb22YOkWvIgiX76X0-7" style="edgeStyle=orthogonalEdgeStyle;rounded=0;orthogonalLoop=1;jettySize=auto;html=1;entryX=0;entryY=0.5;entryDx=0;entryDy=0;fontColor=#000000;" parent="IIw93woYsKADVbD83Coo-1" source="gkyDb22YOkWvIgiX76X0-0" target="gkyDb22YOkWvIgiX76X0-2" edge="1">
          <mxGeometry relative="1" as="geometry" />
        </mxCell>
        <mxCell id="gkyDb22YOkWvIgiX76X0-0" value="&lt;b&gt;AWS Private CA&lt;/b&gt;&lt;br&gt;(optional)" style="sketch=0;points=[[0,0,0],[0.25,0,0],[0.5,0,0],[0.75,0,0],[1,0,0],[0,1,0],[0.25,1,0],[0.5,1,0],[0.75,1,0],[1,1,0],[0,0.25,0],[0,0.5,0],[0,0.75,0],[1,0.25,0],[1,0.5,0],[1,0.75,0]];outlineConnect=0;fontColor=#000000;gradientColor=#F54749;gradientDirection=north;fillColor=#C7131F;strokeColor=#ffffff;dashed=0;verticalLabelPosition=bottom;verticalAlign=top;align=center;html=1;fontSize=12;fontStyle=0;aspect=fixed;shape=mxgraph.aws4.resourceIcon;resIcon=mxgraph.aws4.certificate_manager_3;" parent="IIw93woYsKADVbD83Coo-1" vertex="1">
          <mxGeometry x="-229.65999999999985" y="-1509" width="78" height="78" as="geometry" />
        </mxCell>
        <mxCell id="gkyDb22YOkWvIgiX76X0-2" value="" style="strokeColor=#5A6C86;dashed=1;verticalAlign=top;fontStyle=1;labelPosition=center;verticalLabelPosition=bottom;align=center;strokeWidth=2;fillColor=none;fontColor=#000000;" parent="IIw93woYsKADVbD83Coo-1" vertex="1">
          <mxGeometry x="-81.65999999999997" y="-1510" width="341.66" height="80" as="geometry" />
        </mxCell>
        <mxCell id="gxDQVVSuupn7LXhFRuub-0" value="HSM 1" style="points=[[0,0,0],[0.25,0,0],[0.5,0,0],[0.75,0,0],[1,0,0],[0,1,0],[0.25,1,0],[0.5,1,0],[0.75,1,0],[1,1,0],[0,0.25,0],[0,0.5,0],[0,0.75,0],[1,0.25,0],[1,0.5,0],[1,0.75,0]];outlineConnect=0;fontColor=#000000;gradientColor=#F54749;gradientDirection=north;fillColor=#C7131F;strokeColor=#ffffff;dashed=0;verticalLabelPosition=bottom;verticalAlign=top;align=center;html=1;fontSize=12;fontStyle=1;aspect=fixed;shape=mxgraph.aws4.resourceIcon;resIcon=mxgraph.aws4.cloudhsm;" parent="IIw93woYsKADVbD83Coo-1" vertex="1">
          <mxGeometry x="-45.659999999999854" y="-1116" width="50" height="50" as="geometry" />
        </mxCell>
        <mxCell id="gxDQVVSuupn7LXhFRuub-2" value="HSM 2" style="points=[[0,0,0],[0.25,0,0],[0.5,0,0],[0.75,0,0],[1,0,0],[0,1,0],[0.25,1,0],[0.5,1,0],[0.75,1,0],[1,1,0],[0,0.25,0],[0,0.5,0],[0,0.75,0],[1,0.25,0],[1,0.5,0],[1,0.75,0]];outlineConnect=0;fontColor=#000000;gradientColor=#F54749;gradientDirection=north;fillColor=#C7131F;strokeColor=#ffffff;dashed=0;verticalLabelPosition=bottom;verticalAlign=top;align=center;html=1;fontSize=12;fontStyle=1;aspect=fixed;shape=mxgraph.aws4.resourceIcon;resIcon=mxgraph.aws4.cloudhsm;" parent="IIw93woYsKADVbD83Coo-1" vertex="1">
          <mxGeometry x="30.43000000000029" y="-1116" width="50" height="50" as="geometry" />
        </mxCell>
        <mxCell id="gxDQVVSuupn7LXhFRuub-4" value="&lt;b&gt;&lt;font style=&quot;font-size: 19px;&quot;&gt;...&lt;/font&gt;&lt;/b&gt;" style="text;html=1;strokeColor=none;fillColor=none;align=center;verticalAlign=middle;whiteSpace=wrap;rounded=0;fontColor=#000000;" parent="IIw93woYsKADVbD83Coo-1" vertex="1">
          <mxGeometry x="89.63000000000011" y="-1106" width="60" height="30" as="geometry" />
        </mxCell>
        <mxCell id="gxDQVVSuupn7LXhFRuub-6" style="edgeStyle=orthogonalEdgeStyle;rounded=0;orthogonalLoop=1;jettySize=auto;html=1;fontColor=#000000;" parent="IIw93woYsKADVbD83Coo-1" source="NnXrEWMzQ3F-WvH5LUov-4" target="NnXrEWMzQ3F-WvH5LUov-1" edge="1">
          <mxGeometry relative="1" as="geometry" />
        </mxCell>
        <mxCell id="NnXrEWMzQ3F-WvH5LUov-4" value="&lt;b&gt;&lt;font&gt;AWS Systems Manager&lt;/font&gt;&lt;/b&gt;" style="sketch=0;points=[[0,0,0],[0.25,0,0],[0.5,0,0],[0.75,0,0],[1,0,0],[0,1,0],[0.25,1,0],[0.5,1,0],[0.75,1,0],[1,1,0],[0,0.25,0],[0,0.5,0],[0,0.75,0],[1,0.25,0],[1,0.5,0],[1,0.75,0]];points=[[0,0,0],[0.25,0,0],[0.5,0,0],[0.75,0,0],[1,0,0],[0,1,0],[0.25,1,0],[0.5,1,0],[0.75,1,0],[1,1,0],[0,0.25,0],[0,0.5,0],[0,0.75,0],[1,0.25,0],[1,0.5,0],[1,0.75,0]];outlineConnect=0;fontColor=#000000;gradientColor=#F34482;gradientDirection=north;fillColor=#BC1356;strokeColor=#ffffff;dashed=0;verticalLabelPosition=bottom;verticalAlign=top;align=center;html=1;fontSize=12;fontStyle=0;aspect=fixed;shape=mxgraph.aws4.resourceIcon;resIcon=mxgraph.aws4.systems_manager;" parent="IIw93woYsKADVbD83Coo-1" vertex="1">
          <mxGeometry x="-221.65999999999985" y="-941" width="70" height="70" as="geometry" />
        </mxCell>
        <mxCell id="gxDQVVSuupn7LXhFRuub-8" value="cloudhsm-client&lt;br&gt;(SDK v3)" style="rounded=0;whiteSpace=wrap;html=1;fontColor=#000000;fontStyle=1" parent="IIw93woYsKADVbD83Coo-1" vertex="1">
          <mxGeometry x="382.00000000000006" y="-934" width="120" height="60" as="geometry" />
        </mxCell>
        <mxCell id="gxDQVVSuupn7LXhFRuub-10" value="cloudhsm-cli&lt;br&gt;(SDK v5)" style="rounded=0;whiteSpace=wrap;html=1;fontColor=#000000;fontStyle=1" parent="IIw93woYsKADVbD83Coo-1" vertex="1">
          <mxGeometry x="523.77" y="-934" width="120" height="60" as="geometry" />
        </mxCell>
        <mxCell id="rsdibH9Gi8JfrkD-6s9X-0" value="&lt;b&gt;Your own PKI process&lt;br&gt;&lt;/b&gt;(optional)" style="fillColor=none;strokeColor=#5A6C86;dashed=1;verticalAlign=bottom;fontStyle=0;fontColor=#000000;whiteSpace=wrap;html=1;strokeWidth=2;labelPosition=center;verticalLabelPosition=top;align=center;spacing=12;" parent="IIw93woYsKADVbD83Coo-1" vertex="1">
          <mxGeometry x="-381.4900000000001" y="-1640" width="381.66" height="96" as="geometry" />
        </mxCell>
        <mxCell id="rsdibH9Gi8JfrkD-6s9X-1" value="Certificate&lt;br&gt;Authority - Root" style="outlineConnect=0;fontColor=#000000;gradientColor=none;fillColor=#C7131F;strokeColor=none;dashed=0;verticalLabelPosition=middle;verticalAlign=middle;align=left;html=1;fontSize=12;fontStyle=1;aspect=fixed;pointerEvents=1;shape=mxgraph.aws4.certificate_manager_2;labelPosition=right;spacing=10;" parent="IIw93woYsKADVbD83Coo-1" vertex="1">
          <mxGeometry x="-347.83000000000004" y="-1618.77" width="58" height="53.54" as="geometry" />
        </mxCell>
        <mxCell id="rsdibH9Gi8JfrkD-6s9X-4" value="Root (CA)&lt;br&gt;certificate" style="outlineConnect=0;fontColor=#000000;gradientColor=none;strokeColor=none;dashed=0;verticalLabelPosition=middle;verticalAlign=middle;align=left;html=1;fontSize=12;fontStyle=1;aspect=fixed;pointerEvents=1;shape=mxgraph.aws4.certificate_manager;fillColor=#C7131F;labelPosition=right;spacing=10;" parent="IIw93woYsKADVbD83Coo-1" vertex="1">
          <mxGeometry x="-170" y="-1620" width="37.82" height="50" as="geometry" />
        </mxCell>
        <mxCell id="rsdibH9Gi8JfrkD-6s9X-5" value="Certificate&lt;br&gt;Authority - Root" style="outlineConnect=0;fontColor=#000000;gradientColor=none;fillColor=#C7131F;strokeColor=none;dashed=0;verticalLabelPosition=middle;verticalAlign=middle;align=left;html=1;fontSize=12;fontStyle=1;aspect=fixed;pointerEvents=1;shape=mxgraph.aws4.certificate_manager_2;labelPosition=right;spacing=10;" parent="IIw93woYsKADVbD83Coo-1" vertex="1">
          <mxGeometry x="-53.65999999999997" y="-1495" width="58" height="53.54" as="geometry" />
        </mxCell>
        <mxCell id="rsdibH9Gi8JfrkD-6s9X-6" value="Root (CA)&lt;br&gt;certificate" style="outlineConnect=0;fontColor=#000000;gradientColor=none;strokeColor=none;dashed=0;verticalLabelPosition=middle;verticalAlign=middle;align=left;html=1;fontSize=12;fontStyle=1;aspect=fixed;pointerEvents=1;shape=mxgraph.aws4.certificate_manager;fillColor=#C7131F;labelPosition=right;spacing=10;" parent="IIw93woYsKADVbD83Coo-1" vertex="1">
          <mxGeometry x="130" y="-1495" width="37.82" height="50" as="geometry" />
        </mxCell>
        <mxCell id="rsdibH9Gi8JfrkD-6s9X-7" value="Root (CA)&lt;br&gt;certificate&lt;br&gt;&lt;span style=&quot;font-weight: normal;&quot;&gt;&lt;font face=&quot;Courier New&quot;&gt;.../customer-ca-cert&lt;/font&gt;&lt;/span&gt;" style="outlineConnect=0;fontColor=#000000;gradientColor=none;strokeColor=none;dashed=0;verticalLabelPosition=bottom;verticalAlign=top;align=center;html=1;fontSize=12;fontStyle=1;aspect=fixed;pointerEvents=1;shape=mxgraph.aws4.certificate_manager;fillColor=#C7131F;labelPosition=center;spacing=10;" parent="IIw93woYsKADVbD83Coo-1" vertex="1">
          <mxGeometry x="311.37000000000006" y="-1336" width="37.82" height="50" as="geometry" />
        </mxCell>
        <mxCell id="PWMy732j62kX_Gch8o0x-0" value="CloudWatch Logs&lt;br&gt;log group&lt;br&gt;&lt;font color=&quot;#000000&quot; style=&quot;font-weight: normal;&quot; face=&quot;Courier New&quot;&gt;/aws/lambda/&amp;lt;pSystem&amp;gt;-&amp;lt;pEnvPurpose&amp;gt;-cfn-custom-resource&lt;/font&gt;" style="sketch=0;outlineConnect=0;fontColor=#232F3E;gradientColor=none;fillColor=#B0084D;strokeColor=none;dashed=0;verticalLabelPosition=bottom;verticalAlign=top;align=center;html=1;fontSize=12;fontStyle=1;aspect=fixed;pointerEvents=1;shape=mxgraph.aws4.logs;" vertex="1" parent="IIw93woYsKADVbD83Coo-1">
          <mxGeometry x="-970.7299999999999" y="-920" width="53.79" height="40" as="geometry" />
        </mxCell>
        <mxCell id="_368dQrQwcm4wDbVw00a-1" value="CloudWatch Logs&lt;br&gt;log group&lt;br&gt;&lt;font color=&quot;#000000&quot; style=&quot;font-weight: normal;&quot; face=&quot;Courier New&quot;&gt;/aws/lambda/&amp;lt;pSystem&amp;gt;-&amp;lt;pEnvPurpose&amp;gt;-*&lt;/font&gt;" style="sketch=0;outlineConnect=0;fontColor=#232F3E;gradientColor=none;fillColor=#B0084D;strokeColor=none;dashed=0;verticalLabelPosition=bottom;verticalAlign=top;align=center;html=1;fontSize=12;fontStyle=1;aspect=fixed;pointerEvents=1;shape=mxgraph.aws4.logs;" vertex="1" parent="IIw93woYsKADVbD83Coo-1">
          <mxGeometry x="-546.9" y="-920" width="53.79" height="40" as="geometry" />
        </mxCell>
        <mxCell id="_368dQrQwcm4wDbVw00a-2" value="CloudWatch Logs&lt;br&gt;log group&lt;br&gt;&lt;font color=&quot;#000000&quot; style=&quot;font-weight: normal;&quot; face=&quot;Courier New&quot;&gt;/aws/vendedlogs/states/&amp;lt;pSystem&amp;gt;-&amp;lt;pEnvPurpose&amp;gt;/*&lt;/font&gt;" style="sketch=0;outlineConnect=0;fontColor=#232F3E;gradientColor=none;fillColor=#B0084D;strokeColor=none;dashed=0;verticalLabelPosition=bottom;verticalAlign=top;align=center;html=1;fontSize=12;fontStyle=1;aspect=fixed;pointerEvents=1;shape=mxgraph.aws4.logs;" vertex="1" parent="IIw93woYsKADVbD83Coo-1">
          <mxGeometry x="-761.6600000000001" y="-1055" width="53.79" height="40" as="geometry" />
        </mxCell>
        <mxCell id="_368dQrQwcm4wDbVw00a-3" style="edgeStyle=orthogonalEdgeStyle;rounded=0;orthogonalLoop=1;jettySize=auto;html=1;" edge="1" parent="IIw93woYsKADVbD83Coo-1" source="by1b-JIzre9-LZ3P0T1U-1" target="_368dQrQwcm4wDbVw00a-2">
          <mxGeometry relative="1" as="geometry" />
        </mxCell>
        <mxCell id="_368dQrQwcm4wDbVw00a-5" value="&lt;font color=&quot;#000000&quot;&gt;CloudWatch Logs&lt;br&gt;log group&lt;br&gt;&lt;font style=&quot;font-weight: normal;&quot; face=&quot;Courier New&quot;&gt;/&amp;lt;pSystem&amp;gt;-&amp;lt;pEnvPurpose&amp;gt;/run-command&lt;/font&gt;&lt;/font&gt;" style="sketch=0;outlineConnect=0;fontColor=#232F3E;gradientColor=none;fillColor=#B0084D;strokeColor=none;dashed=0;verticalLabelPosition=bottom;verticalAlign=top;align=center;html=1;fontSize=12;fontStyle=1;aspect=fixed;pointerEvents=1;shape=mxgraph.aws4.logs;" vertex="1" parent="IIw93woYsKADVbD83Coo-1">
          <mxGeometry x="100.44999999999997" y="-823" width="53.79" height="40" as="geometry" />
        </mxCell>
        <mxCell id="T0s1u9l-oCiM07zSL38j-3" value="&lt;b&gt;Cluster-specific externalized data&lt;/b&gt;&lt;br&gt;&lt;font face=&quot;Courier New&quot;&gt;/&amp;lt;pSystem&amp;gt;/&amp;lt;cluster ID&amp;gt;/...&lt;/font&gt;" style="text;html=1;strokeColor=none;fillColor=none;align=center;verticalAlign=middle;whiteSpace=wrap;rounded=0;" vertex="1" parent="IIw93woYsKADVbD83Coo-1">
          <mxGeometry x="209.17" y="-1375" width="210" height="30" as="geometry" />
        </mxCell>
      </root>
    </mxGraphModel>
  </diagram>
</mxfile>
